<?xml version="1.0" standalone="no"?>
<!DOCTYPE svg PUBLIC "-//W3C//DTD SVG 20010904//EN"
 "http://www.w3.org/TR/2001/REC-SVG-20010904/DTD/svg10.dtd">
<svg version="1.0" xmlns="http://www.w3.org/2000/svg"
 width="700.000000pt" height="700.000000pt" viewBox="0 0 700.000000 700.000000"
 preserveAspectRatio="xMidYMid meet">
<metadata>
Created by potrace 1.11, written by Peter Selinger 2001-2013
</metadata>
<g transform="translate(0.000000,700.000000) scale(0.100000,-0.100000)"
fill="#000000" stroke="none">
<path d="M3328 6996 c-1 -2 -30 -6 -63 -9 -317 -31 -646 -151 -920 -336 -162
-110 -282 -226 -392 -379 -93 -130 -185 -331 -209 -456 -2 -11 -9 -46 -15 -76
-18 -83 -15 -310 5 -412 54 -275 191 -517 410 -725 l96 -91 -10 -53 c-11 -62
-16 -94 -26 -164 -3 -27 -8 -59 -10 -70 -2 -10 -6 -37 -9 -60 -3 -22 -8 -51
-10 -65 -31 -179 -21 -234 47 -259 48 -17 60 -12 295 126 203 119 218 127 315
182 l57 32 63 -16 c55 -14 151 -34 241 -49 169 -29 506 -24 687 9 578 107
1065 443 1279 880 45 93 86 202 96 256 3 13 11 56 19 96 16 86 14 319 -3 408
-24 118 -101 331 -137 375 -6 8 -20 31 -29 50 -53 104 -266 337 -382 417 -124
86 -173 116 -275 168 -206 106 -443 180 -678 211 -48 6 -436 15 -442 10z m367
-221 c33 -3 74 -8 90 -9 231 -25 579 -164 788 -315 369 -266 555 -674 487
-1071 -70 -415 -412 -778 -900 -957 -114 -42 -150 -53 -150 -47 0 3 -8 0 -19
-5 -10 -6 -31 -13 -47 -15 -16 -3 -52 -10 -81 -15 -105 -20 -182 -26 -353 -26
-223 0 -369 18 -532 66 -81 24 -125 26 -158 9 -14 -7 -111 -64 -217 -126 -105
-63 -194 -114 -197 -114 -5 0 0 51 10 110 2 14 7 43 9 66 3 23 12 79 19 125
22 139 18 156 -44 209 -326 274 -473 550 -473 885 1 319 142 605 418 845 171
149 481 297 731 349 136 29 146 30 254 37 52 4 96 7 97 8 5 4 213 -3 268 -9z"/>
<path d="M2688 5680 c-15 -4 -34 -14 -41 -22 -85 -85 -18 -224 99 -205 115 19
135 171 29 221 -36 18 -47 18 -87 6z"/>
<path d="M3473 5683 c-29 -6 -83 -61 -84 -87 -4 -67 16 -108 62 -132 48 -24
92 -18 133 20 31 28 37 40 38 78 1 54 -21 90 -67 112 -33 16 -41 17 -82 9z"/>
<path d="M4254 5682 c-107 -33 -116 -180 -14 -222 140 -58 233 149 95 214 -35
17 -47 18 -81 8z"/>
<path d="M1544 3725 c-268 -58 -466 -238 -561 -510 -35 -97 -41 -295 -12 -404
70 -271 272 -475 541 -547 86 -23 245 -27 333 -9 285 60 504 269 582 554 16
60 23 236 11 311 -16 104 -78 244 -146 329 -102 128 -220 210 -370 258 -95 30
-281 39 -378 18z m280 -211 c116 -21 268 -132 333 -242 57 -96 77 -177 76
-295 -5 -324 -304 -569 -628 -513 -152 25 -283 118 -368 258 -91 151 -98 340
-17 504 111 227 340 336 604 288z"/>
<path d="M5157 3728 c-285 -62 -501 -266 -578 -545 -35 -127 -31 -294 12 -423
98 -300 372 -506 683 -515 114 -4 181 6 279 40 386 133 597 574 457 958 -91
247 -299 429 -552 483 -76 16 -235 17 -301 2z m315 -227 c175 -58 316 -211
353 -384 26 -120 6 -279 -46 -377 -49 -92 -144 -183 -234 -227 -244 -119 -536
-43 -684 177 -85 127 -114 285 -80 428 45 188 218 357 405 397 87 18 208 12
286 -14z"/>
<path d="M3350 3326 c-87 -19 -138 -38 -213 -80 -166 -94 -300 -260 -352 -439
-26 -89 -27 -98 -30 -201 -5 -220 79 -415 246 -570 191 -176 483 -239 730
-156 212 71 377 222 461 423 16 38 32 78 34 90 42 192 27 359 -46 514 -92 198
-271 350 -481 408 -78 22 -269 28 -349 11z m265 -213 c156 -34 283 -130 363
-275 51 -92 72 -249 47 -363 -61 -283 -347 -468 -630 -410 -404 84 -567 574
-293 879 135 150 319 211 513 169z"/>
<path d="M1120 2044 c-365 -66 -666 -328 -776 -673 -43 -134 -48 -189 -48
-547 -1 -369 0 -375 53 -407 26 -15 108 -17 881 -17 470 0 855 -2 858 -4 2 -2
3 -70 3 -151 0 -173 9 -208 63 -230 31 -13 216 -15 1351 -15 962 0 1321 3
1340 12 58 26 63 56 65 356 l0 32 851 0 c937 0 901 -2 931 61 23 46 17 693 -7
804 -70 331 -307 608 -621 728 -162 62 -200 66 -754 66 -524 0 -573 -3 -710
-45 -163 -50 -286 -128 -426 -270 l-102 -102 -38 8 c-49 11 -1005 11 -1064 0
-44 -8 -44 -8 -90 42 -84 94 -105 114 -170 164 -109 82 -215 133 -370 176 -71
20 -100 22 -610 24 -418 2 -551 -1 -610 -12z m1115 -208 c166 -33 305 -103
423 -214 17 -16 32 -34 32 -39 0 -4 -28 -24 -62 -42 -237 -129 -409 -340 -486
-596 -27 -89 -36 -151 -36 -247 -1 -43 -3 -79 -6 -79 -3 -1 -362 -2 -797 -3
l-793 -2 -1 86 c-2 193 2 428 7 470 35 271 235 526 489 621 138 52 173 55 700
54 270 -1 508 -5 530 -9z m3669 -15 c288 -78 495 -286 568 -573 18 -74 21
-114 22 -358 l1 -275 -792 -1 c-719 -1 -793 1 -794 15 0 9 -1 93 -3 187 l-2
170 -51 101 c-28 56 -70 127 -93 158 -88 120 -223 233 -362 305 l-46 24 31 41
c54 71 125 131 188 160 151 67 198 72 769 70 461 -2 489 -3 564 -24z m-1812
-399 c293 -72 499 -280 585 -593 4 -13 8 -157 10 -321 l4 -296 -1190 0 -1191
0 0 317 c0 210 4 330 11 352 13 39 60 137 92 193 33 57 164 188 232 231 110
70 274 124 382 126 21 0 46 4 56 7 10 4 221 7 470 6 424 -1 457 -2 539 -22z"/>
</g>
</svg>
